<svg id="visual" viewBox="0 0 900 600" width="900" height="600" xmlns="http://www.w3.org/2000/svg" xmlns:xlink="http://www.w3.org/1999/xlink" version="1.1"><rect x="0" y="0" width="900" height="600" fill="#0369a1"></rect><path d="M0 371L129 371L129 313L257 313L257 303L386 303L386 322L514 322L514 300L643 300L643 354L771 354L771 370L900 370L900 357L900 601L900 601L771 601L771 601L643 601L643 601L514 601L514 601L386 601L386 601L257 601L257 601L129 601L129 601L0 601Z" fill="#0ea5e9"></path><path d="M0 372L129 372L129 418L257 418L257 380L386 380L386 417L514 417L514 400L643 400L643 422L771 422L771 431L900 431L900 347L900 601L900 601L771 601L771 601L643 601L643 601L514 601L514 601L386 601L386 601L257 601L257 601L129 601L129 601L0 601Z" fill="#52bcf3"></path><path d="M0 531L129 531L129 460L257 460L257 499L386 499L386 451L514 451L514 448L643 448L643 463L771 463L771 459L900 459L900 541L900 601L900 601L771 601L771 601L643 601L643 601L514 601L514 601L386 601L386 601L257 601L257 601L129 601L129 601L0 601Z" fill="#7dd3fc"></path></svg>