<svg xmlns="http://www.w3.org/2000/svg" version="1.1" xmlns:xlink="http://www.w3.org/1999/xlink" xmlns:svgjs="http://svgjs.dev/svgjs" width="1440" height="560" preserveAspectRatio="none" viewBox="0 0 1440 560"><g mask="url(&quot;#SvgjsMask1006&quot;)" fill="none"><rect width="1440" height="560" x="0" y="0" fill="rgba(14, 165, 233, 1)"></rect><path d="M-94.47 337.74L-94.47 337.74" stroke="rgba(125, 211, 252, 1)" stroke-width="1.5"></path><path d="M-94.47 337.74L37.72 399.93" stroke="rgba(125, 211, 252, 1)" stroke-width="1.5"></path><path d="M-94.47 337.74L-68.52 489.06" stroke="rgba(125, 211, 252, 1)" stroke-width="1.5"></path><path d="M-94.47 337.74L98.65 528.19" stroke="rgba(125, 211, 252, 1)" stroke-width="1.5"></path><path d="M-94.47 337.74L-67.01 639.71" stroke="rgba(125, 211, 252, 1)" stroke-width="1.5"></path><path d="M-94.47 337.74L249.64 547.48" stroke="rgba(125, 211, 252, 1)" stroke-width="1.5"></path><path d="M-68.52 489.06L-68.52 489.06" stroke="rgba(125, 211, 252, 1)" stroke-width="1.5"></path><path d="M-68.52 489.06L37.72 399.93" stroke="rgba(125, 211, 252, 1)" stroke-width="1.5"></path><path d="M-68.52 489.06L-67.01 639.71" stroke="rgba(125, 211, 252, 1)" stroke-width="1.5"></path><path d="M-68.52 489.06L98.65 528.19" stroke="rgba(125, 211, 252, 1)" stroke-width="1.5"></path><path d="M-68.52 489.06L99.82 700.15" stroke="rgba(125, 211, 252, 1)" stroke-width="1.5"></path><path d="M-68.52 489.06L249.64 547.48" stroke="rgba(125, 211, 252, 1)" stroke-width="1.5"></path><path d="M-67.01 639.71L-67.01 639.71" stroke="rgba(125, 211, 252, 1)" stroke-width="1.5"></path><path d="M-67.01 639.71L99.82 700.15" stroke="rgba(125, 211, 252, 1)" stroke-width="1.5"></path><path d="M-67.01 639.71L98.65 528.19" stroke="rgba(125, 211, 252, 1)" stroke-width="1.5"></path><path d="M-67.01 639.71L37.72 399.93" stroke="rgba(125, 211, 252, 1)" stroke-width="1.5"></path><path d="M-67.01 639.71L257.77 643.16" stroke="rgba(125, 211, 252, 1)" stroke-width="1.5"></path><path d="M37.72 399.93L37.72 399.93" stroke="rgba(125, 211, 252, 1)" stroke-width="1.5"></path><path d="M37.72 399.93L98.65 528.19" stroke="rgba(125, 211, 252, 1)" stroke-width="1.5"></path><path d="M98.65 528.19L98.65 528.19" stroke="rgba(125, 211, 252, 1)" stroke-width="1.5"></path><path d="M98.65 528.19L249.64 547.48" stroke="rgba(125, 211, 252, 1)" stroke-width="1.5"></path><path d="M99.82 700.15L99.82 700.15" stroke="rgba(125, 211, 252, 1)" stroke-width="1.5"></path><path d="M99.82 700.15L257.77 643.16" stroke="rgba(125, 211, 252, 1)" stroke-width="1.5"></path><path d="M249.64 547.48L249.64 547.48" stroke="rgba(125, 211, 252, 1)" stroke-width="1.5"></path><path d="M249.64 547.48L257.77 643.16" stroke="rgba(125, 211, 252, 1)" stroke-width="1.5"></path><path d="M249.64 547.48L375.4 492.69" stroke="rgba(125, 211, 252, 1)" stroke-width="1.5"></path><path d="M257.77 643.16L257.77 643.16" stroke="rgba(125, 211, 252, 1)" stroke-width="1.5"></path><path d="M257.77 643.16L371.57 705.39" stroke="rgba(125, 211, 252, 1)" stroke-width="1.5"></path><path d="M257.77 643.16L375.4 492.69" stroke="rgba(125, 211, 252, 1)" stroke-width="1.5"></path><path d="M404.73 339.06L404.73 339.06" stroke="rgba(125, 211, 252, 1)" stroke-width="1.5"></path><path d="M404.73 339.06L555.05 360.74" stroke="rgba(125, 211, 252, 1)" stroke-width="1.5"></path><path d="M404.73 339.06L375.4 492.69" stroke="rgba(125, 211, 252, 1)" stroke-width="1.5"></path><path d="M375.4 492.69L375.4 492.69" stroke="rgba(125, 211, 252, 1)" stroke-width="1.5"></path><path d="M375.4 492.69L556.37 528.53" stroke="rgba(125, 211, 252, 1)" stroke-width="1.5"></path><path d="M375.4 492.69L371.57 705.39" stroke="rgba(125, 211, 252, 1)" stroke-width="1.5"></path><path d="M375.4 492.69L555.05 360.74" stroke="rgba(125, 211, 252, 1)" stroke-width="1.5"></path><path d="M371.57 705.39L371.57 705.39" stroke="rgba(125, 211, 252, 1)" stroke-width="1.5"></path><path d="M555.05 360.74L555.05 360.74" stroke="rgba(125, 211, 252, 1)" stroke-width="1.5"></path><path d="M555.05 360.74L698.81 370.69" stroke="rgba(125, 211, 252, 1)" stroke-width="1.5"></path><path d="M555.05 360.74L556.37 528.53" stroke="rgba(125, 211, 252, 1)" stroke-width="1.5"></path><path d="M555.05 360.74L701.4 503.07" stroke="rgba(125, 211, 252, 1)" stroke-width="1.5"></path><path d="M556.37 528.53L556.37 528.53" stroke="rgba(125, 211, 252, 1)" stroke-width="1.5"></path><path d="M556.37 528.53L701.4 503.07" stroke="rgba(125, 211, 252, 1)" stroke-width="1.5"></path><path d="M556.37 528.53L511.3 690.78" stroke="rgba(125, 211, 252, 1)" stroke-width="1.5"></path><path d="M511.3 690.78L511.3 690.78" stroke="rgba(125, 211, 252, 1)" stroke-width="1.5"></path><path d="M511.3 690.78L371.57 705.39" stroke="rgba(125, 211, 252, 1)" stroke-width="1.5"></path><path d="M698.81 370.69L698.81 370.69" stroke="rgba(125, 211, 252, 1)" stroke-width="1.5"></path><path d="M698.81 370.69L821.69 351.56" stroke="rgba(125, 211, 252, 1)" stroke-width="1.5"></path><path d="M701.4 503.07L701.4 503.07" stroke="rgba(125, 211, 252, 1)" stroke-width="1.5"></path><path d="M701.4 503.07L793.02 490.14" stroke="rgba(125, 211, 252, 1)" stroke-width="1.5"></path><path d="M701.4 503.07L698.81 370.69" stroke="rgba(125, 211, 252, 1)" stroke-width="1.5"></path><path d="M701.4 503.07L679.79 656.63" stroke="rgba(125, 211, 252, 1)" stroke-width="1.5"></path><path d="M679.79 656.63L679.79 656.63" stroke="rgba(125, 211, 252, 1)" stroke-width="1.5"></path><path d="M679.79 656.63L511.3 690.78" stroke="rgba(125, 211, 252, 1)" stroke-width="1.5"></path><path d="M679.79 656.63L556.37 528.53" stroke="rgba(125, 211, 252, 1)" stroke-width="1.5"></path><path d="M679.79 656.63L793.02 490.14" stroke="rgba(125, 211, 252, 1)" stroke-width="1.5"></path><path d="M679.79 656.63L964.17 638.78" stroke="rgba(125, 211, 252, 1)" stroke-width="1.5"></path><path d="M679.79 656.63L698.81 370.69" stroke="rgba(125, 211, 252, 1)" stroke-width="1.5"></path><path d="M824.16 221.49L824.16 221.49" stroke="rgba(125, 211, 252, 1)" stroke-width="1.5"></path><path d="M824.16 221.49L821.69 351.56" stroke="rgba(125, 211, 252, 1)" stroke-width="1.5"></path><path d="M824.16 221.49L938.07 110.02" stroke="rgba(125, 211, 252, 1)" stroke-width="1.5"></path><path d="M824.16 221.49L1007.12 201.75" stroke="rgba(125, 211, 252, 1)" stroke-width="1.5"></path><path d="M824.16 221.49L698.81 370.69" stroke="rgba(125, 211, 252, 1)" stroke-width="1.5"></path><path d="M821.69 351.56L821.69 351.56" stroke="rgba(125, 211, 252, 1)" stroke-width="1.5"></path><path d="M821.69 351.56L793.02 490.14" stroke="rgba(125, 211, 252, 1)" stroke-width="1.5"></path><path d="M821.69 351.56L1008.5 381.1" stroke="rgba(125, 211, 252, 1)" stroke-width="1.5"></path><path d="M821.69 351.56L701.4 503.07" stroke="rgba(125, 211, 252, 1)" stroke-width="1.5"></path><path d="M793.02 490.14L793.02 490.14" stroke="rgba(125, 211, 252, 1)" stroke-width="1.5"></path><path d="M793.02 490.14L698.81 370.69" stroke="rgba(125, 211, 252, 1)" stroke-width="1.5"></path><path d="M793.02 490.14L964.17 638.78" stroke="rgba(125, 211, 252, 1)" stroke-width="1.5"></path><path d="M957.35 -53.06L957.35 -53.06" stroke="rgba(125, 211, 252, 1)" stroke-width="1.5"></path><path d="M957.35 -53.06L1098.21 -47.9" stroke="rgba(125, 211, 252, 1)" stroke-width="1.5"></path><path d="M957.35 -53.06L938.07 110.02" stroke="rgba(125, 211, 252, 1)" stroke-width="1.5"></path><path d="M957.35 -53.06L1147.2 69.76" stroke="rgba(125, 211, 252, 1)" stroke-width="1.5"></path><path d="M957.35 -53.06L1007.12 201.75" stroke="rgba(125, 211, 252, 1)" stroke-width="1.5"></path><path d="M938.07 110.02L938.07 110.02" stroke="rgba(125, 211, 252, 1)" stroke-width="1.5"></path><path d="M938.07 110.02L1007.12 201.75" stroke="rgba(125, 211, 252, 1)" stroke-width="1.5"></path><path d="M938.07 110.02L1147.2 69.76" stroke="rgba(125, 211, 252, 1)" stroke-width="1.5"></path><path d="M938.07 110.02L1118.15 240.19" stroke="rgba(125, 211, 252, 1)" stroke-width="1.5"></path><path d="M938.07 110.02L1098.21 -47.9" stroke="rgba(125, 211, 252, 1)" stroke-width="1.5"></path><path d="M1007.12 201.75L1007.12 201.75" stroke="rgba(125, 211, 252, 1)" stroke-width="1.5"></path><path d="M1007.12 201.75L1118.15 240.19" stroke="rgba(125, 211, 252, 1)" stroke-width="1.5"></path><path d="M1007.12 201.75L1008.5 381.1" stroke="rgba(125, 211, 252, 1)" stroke-width="1.5"></path><path d="M1008.5 381.1L1008.5 381.1" stroke="rgba(125, 211, 252, 1)" stroke-width="1.5"></path><path d="M1008.5 381.1L1143.98 391.12" stroke="rgba(125, 211, 252, 1)" stroke-width="1.5"></path><path d="M1008.5 381.1L1105.11 494.02" stroke="rgba(125, 211, 252, 1)" stroke-width="1.5"></path><path d="M1008.5 381.1L1118.15 240.19" stroke="rgba(125, 211, 252, 1)" stroke-width="1.5"></path><path d="M964.17 638.78L964.17 638.78" stroke="rgba(125, 211, 252, 1)" stroke-width="1.5"></path><path d="M964.17 638.78L1145.16 658.51" stroke="rgba(125, 211, 252, 1)" stroke-width="1.5"></path><path d="M964.17 638.78L1105.11 494.02" stroke="rgba(125, 211, 252, 1)" stroke-width="1.5"></path><path d="M964.17 638.78L1008.5 381.1" stroke="rgba(125, 211, 252, 1)" stroke-width="1.5"></path><path d="M1098.21 -47.9L1098.21 -47.9" stroke="rgba(125, 211, 252, 1)" stroke-width="1.5"></path><path d="M1098.21 -47.9L1147.2 69.76" stroke="rgba(125, 211, 252, 1)" stroke-width="1.5"></path><path d="M1098.21 -47.9L1240.99 -44.24" stroke="rgba(125, 211, 252, 1)" stroke-width="1.5"></path><path d="M1098.21 -47.9L1303.28 45.3" stroke="rgba(125, 211, 252, 1)" stroke-width="1.5"></path><path d="M1098.21 -47.9L1007.12 201.75" stroke="rgba(125, 211, 252, 1)" stroke-width="1.5"></path><path d="M1147.2 69.76L1147.2 69.76" stroke="rgba(125, 211, 252, 1)" stroke-width="1.5"></path><path d="M1147.2 69.76L1240.99 -44.24" stroke="rgba(125, 211, 252, 1)" stroke-width="1.5"></path><path d="M1147.2 69.76L1303.28 45.3" stroke="rgba(125, 211, 252, 1)" stroke-width="1.5"></path><path d="M1147.2 69.76L1246.81 208.88" stroke="rgba(125, 211, 252, 1)" stroke-width="1.5"></path><path d="M1147.2 69.76L1118.15 240.19" stroke="rgba(125, 211, 252, 1)" stroke-width="1.5"></path><path d="M1118.15 240.19L1118.15 240.19" stroke="rgba(125, 211, 252, 1)" stroke-width="1.5"></path><path d="M1118.15 240.19L1246.81 208.88" stroke="rgba(125, 211, 252, 1)" stroke-width="1.5"></path><path d="M1118.15 240.19L1143.98 391.12" stroke="rgba(125, 211, 252, 1)" stroke-width="1.5"></path><path d="M1143.98 391.12L1143.98 391.12" stroke="rgba(125, 211, 252, 1)" stroke-width="1.5"></path><path d="M1143.98 391.12L1105.11 494.02" stroke="rgba(125, 211, 252, 1)" stroke-width="1.5"></path><path d="M1143.98 391.12L1260.32 380.22" stroke="rgba(125, 211, 252, 1)" stroke-width="1.5"></path><path d="M1143.98 391.12L1238.77 508.91" stroke="rgba(125, 211, 252, 1)" stroke-width="1.5"></path><path d="M1143.98 391.12L1246.81 208.88" stroke="rgba(125, 211, 252, 1)" stroke-width="1.5"></path><path d="M1105.11 494.02L1105.11 494.02" stroke="rgba(125, 211, 252, 1)" stroke-width="1.5"></path><path d="M1105.11 494.02L1238.77 508.91" stroke="rgba(125, 211, 252, 1)" stroke-width="1.5"></path><path d="M1105.11 494.02L1145.16 658.51" stroke="rgba(125, 211, 252, 1)" stroke-width="1.5"></path><path d="M1145.16 658.51L1145.16 658.51" stroke="rgba(125, 211, 252, 1)" stroke-width="1.5"></path><path d="M1145.16 658.51L1289.7 680.5" stroke="rgba(125, 211, 252, 1)" stroke-width="1.5"></path><path d="M1145.16 658.51L1238.77 508.91" stroke="rgba(125, 211, 252, 1)" stroke-width="1.5"></path><path d="M1145.16 658.51L1143.98 391.12" stroke="rgba(125, 211, 252, 1)" stroke-width="1.5"></path><path d="M1240.99 -44.24L1240.99 -44.24" stroke="rgba(125, 211, 252, 1)" stroke-width="1.5"></path><path d="M1240.99 -44.24L1303.28 45.3" stroke="rgba(125, 211, 252, 1)" stroke-width="1.5"></path><path d="M1240.99 -44.24L1451.46 -61.6" stroke="rgba(125, 211, 252, 1)" stroke-width="1.5"></path><path d="M1240.99 -44.24L1410.99 112.4" stroke="rgba(125, 211, 252, 1)" stroke-width="1.5"></path><path d="M1240.99 -44.24L1246.81 208.88" stroke="rgba(125, 211, 252, 1)" stroke-width="1.5"></path><path d="M1303.28 45.3L1303.28 45.3" stroke="rgba(125, 211, 252, 1)" stroke-width="1.5"></path><path d="M1303.28 45.3L1410.99 112.4" stroke="rgba(125, 211, 252, 1)" stroke-width="1.5"></path><path d="M1246.81 208.88L1246.81 208.88" stroke="rgba(125, 211, 252, 1)" stroke-width="1.5"></path><path d="M1246.81 208.88L1260.32 380.22" stroke="rgba(125, 211, 252, 1)" stroke-width="1.5"></path><path d="M1246.81 208.88L1419.77 210.78" stroke="rgba(125, 211, 252, 1)" stroke-width="1.5"></path><path d="M1260.32 380.22L1260.32 380.22" stroke="rgba(125, 211, 252, 1)" stroke-width="1.5"></path><path d="M1238.77 508.91L1238.77 508.91" stroke="rgba(125, 211, 252, 1)" stroke-width="1.5"></path><path d="M1238.77 508.91L1260.32 380.22" stroke="rgba(125, 211, 252, 1)" stroke-width="1.5"></path><path d="M1238.77 508.91L1399.74 502.39" stroke="rgba(125, 211, 252, 1)" stroke-width="1.5"></path><path d="M1289.7 680.5L1289.7 680.5" stroke="rgba(125, 211, 252, 1)" stroke-width="1.5"></path><path d="M1289.7 680.5L1419.66 676.97" stroke="rgba(125, 211, 252, 1)" stroke-width="1.5"></path><path d="M1289.7 680.5L1238.77 508.91" stroke="rgba(125, 211, 252, 1)" stroke-width="1.5"></path><path d="M1289.7 680.5L1399.74 502.39" stroke="rgba(125, 211, 252, 1)" stroke-width="1.5"></path><path d="M1289.7 680.5L1541.33 701.58" stroke="rgba(125, 211, 252, 1)" stroke-width="1.5"></path><path d="M1289.7 680.5L1105.11 494.02" stroke="rgba(125, 211, 252, 1)" stroke-width="1.5"></path><path d="M1451.46 -61.6L1451.46 -61.6" stroke="rgba(125, 211, 252, 1)" stroke-width="1.5"></path><path d="M1451.46 -61.6L1583.46 -78.13" stroke="rgba(125, 211, 252, 1)" stroke-width="1.5"></path><path d="M1451.46 -61.6L1410.99 112.4" stroke="rgba(125, 211, 252, 1)" stroke-width="1.5"></path><path d="M1451.46 -61.6L1303.28 45.3" stroke="rgba(125, 211, 252, 1)" stroke-width="1.5"></path><path d="M1410.99 112.4L1410.99 112.4" stroke="rgba(125, 211, 252, 1)" stroke-width="1.5"></path><path d="M1410.99 112.4L1419.77 210.78" stroke="rgba(125, 211, 252, 1)" stroke-width="1.5"></path><path d="M1410.99 112.4L1582.21 85.56" stroke="rgba(125, 211, 252, 1)" stroke-width="1.5"></path><path d="M1410.99 112.4L1246.81 208.88" stroke="rgba(125, 211, 252, 1)" stroke-width="1.5"></path><path d="M1419.77 210.78L1419.77 210.78" stroke="rgba(125, 211, 252, 1)" stroke-width="1.5"></path><path d="M1419.77 210.78L1418.48 348.59" stroke="rgba(125, 211, 252, 1)" stroke-width="1.5"></path><path d="M1418.48 348.59L1418.48 348.59" stroke="rgba(125, 211, 252, 1)" stroke-width="1.5"></path><path d="M1418.48 348.59L1554.61 396.7" stroke="rgba(125, 211, 252, 1)" stroke-width="1.5"></path><path d="M1399.74 502.39L1399.74 502.39" stroke="rgba(125, 211, 252, 1)" stroke-width="1.5"></path><path d="M1399.74 502.39L1418.48 348.59" stroke="rgba(125, 211, 252, 1)" stroke-width="1.5"></path><path d="M1419.66 676.97L1419.66 676.97" stroke="rgba(125, 211, 252, 1)" stroke-width="1.5"></path><path d="M1419.66 676.97L1541.33 701.58" stroke="rgba(125, 211, 252, 1)" stroke-width="1.5"></path><path d="M1583.46 -78.13L1583.46 -78.13" stroke="rgba(125, 211, 252, 1)" stroke-width="1.5"></path><path d="M1583.46 -78.13L1582.21 85.56" stroke="rgba(125, 211, 252, 1)" stroke-width="1.5"></path><path d="M1583.46 -78.13L1410.99 112.4" stroke="rgba(125, 211, 252, 1)" stroke-width="1.5"></path><path d="M1583.46 -78.13L1303.28 45.3" stroke="rgba(125, 211, 252, 1)" stroke-width="1.5"></path><path d="M1583.46 -78.13L1419.77 210.78" stroke="rgba(125, 211, 252, 1)" stroke-width="1.5"></path><path d="M1583.46 -78.13L1240.99 -44.24" stroke="rgba(125, 211, 252, 1)" stroke-width="1.5"></path><path d="M1582.21 85.56L1582.21 85.56" stroke="rgba(125, 211, 252, 1)" stroke-width="1.5"></path><path d="M1582.21 85.56L1451.46 -61.6" stroke="rgba(125, 211, 252, 1)" stroke-width="1.5"></path><path d="M1554.61 396.7L1554.61 396.7" stroke="rgba(125, 211, 252, 1)" stroke-width="1.5"></path><path d="M1554.61 396.7L1399.74 502.39" stroke="rgba(125, 211, 252, 1)" stroke-width="1.5"></path><path d="M1554.61 396.7L1419.77 210.78" stroke="rgba(125, 211, 252, 1)" stroke-width="1.5"></path><path d="M1554.61 396.7L1260.32 380.22" stroke="rgba(125, 211, 252, 1)" stroke-width="1.5"></path><path d="M1554.61 396.7L1541.33 701.58" stroke="rgba(125, 211, 252, 1)" stroke-width="1.5"></path><path d="M1554.61 396.7L1419.66 676.97" stroke="rgba(125, 211, 252, 1)" stroke-width="1.5"></path><path d="M1541.33 701.58L1541.33 701.58" stroke="rgba(125, 211, 252, 1)" stroke-width="1.5"></path><path d="M1541.33 701.58L1399.74 502.39" stroke="rgba(125, 211, 252, 1)" stroke-width="1.5"></path><circle r="5" cx="-94.47" cy="337.74" fill="rgba(125, 211, 252, 1)"></circle><circle r="5" cx="-68.52" cy="489.06" fill="rgba(125, 211, 252, 1)"></circle><circle r="5" cx="-67.01" cy="639.71" fill="rgba(125, 211, 252, 1)"></circle><circle r="5" cx="37.72" cy="399.93" fill="rgba(125, 211, 252, 1)"></circle><circle r="5" cx="98.65" cy="528.19" fill="rgba(125, 211, 252, 1)"></circle><circle r="5" cx="99.82" cy="700.15" fill="rgba(125, 211, 252, 1)"></circle><circle r="5" cx="249.64" cy="547.48" fill="rgba(125, 211, 252, 1)"></circle><circle r="5" cx="257.77" cy="643.16" fill="rgba(125, 211, 252, 1)"></circle><circle r="5" cx="404.73" cy="339.06" fill="rgba(125, 211, 252, 1)"></circle><circle r="5" cx="375.4" cy="492.69" fill="rgba(125, 211, 252, 1)"></circle><circle r="5" cx="371.57" cy="705.39" fill="rgba(125, 211, 252, 1)"></circle><circle r="5" cx="555.05" cy="360.74" fill="rgba(125, 211, 252, 1)"></circle><circle r="5" cx="556.37" cy="528.53" fill="rgba(125, 211, 252, 1)"></circle><circle r="5" cx="511.3" cy="690.78" fill="rgba(125, 211, 252, 1)"></circle><circle r="5" cx="698.81" cy="370.69" fill="rgba(125, 211, 252, 1)"></circle><circle r="5" cx="701.4" cy="503.07" fill="rgba(125, 211, 252, 1)"></circle><circle r="5" cx="679.79" cy="656.63" fill="rgba(125, 211, 252, 1)"></circle><circle r="5" cx="824.16" cy="221.49" fill="rgba(125, 211, 252, 1)"></circle><circle r="5" cx="821.69" cy="351.56" fill="rgba(125, 211, 252, 1)"></circle><circle r="5" cx="793.02" cy="490.14" fill="rgba(125, 211, 252, 1)"></circle><circle r="5" cx="957.35" cy="-53.06" fill="rgba(125, 211, 252, 1)"></circle><circle r="5" cx="938.07" cy="110.02" fill="rgba(125, 211, 252, 1)"></circle><circle r="5" cx="1007.12" cy="201.75" fill="rgba(125, 211, 252, 1)"></circle><circle r="5" cx="1008.5" cy="381.1" fill="rgba(125, 211, 252, 1)"></circle><circle r="5" cx="964.17" cy="638.78" fill="rgba(125, 211, 252, 1)"></circle><circle r="5" cx="1098.21" cy="-47.9" fill="rgba(125, 211, 252, 1)"></circle><circle r="5" cx="1147.2" cy="69.76" fill="rgba(125, 211, 252, 1)"></circle><circle r="5" cx="1118.15" cy="240.19" fill="rgba(125, 211, 252, 1)"></circle><circle r="5" cx="1143.98" cy="391.12" fill="rgba(125, 211, 252, 1)"></circle><circle r="5" cx="1105.11" cy="494.02" fill="rgba(125, 211, 252, 1)"></circle><circle r="5" cx="1145.16" cy="658.51" fill="rgba(125, 211, 252, 1)"></circle><circle r="5" cx="1240.99" cy="-44.24" fill="rgba(125, 211, 252, 1)"></circle><circle r="5" cx="1303.28" cy="45.3" fill="rgba(125, 211, 252, 1)"></circle><circle r="5" cx="1246.81" cy="208.88" fill="rgba(125, 211, 252, 1)"></circle><circle r="5" cx="1260.32" cy="380.22" fill="rgba(125, 211, 252, 1)"></circle><circle r="5" cx="1238.77" cy="508.91" fill="rgba(125, 211, 252, 1)"></circle><circle r="5" cx="1289.7" cy="680.5" fill="rgba(125, 211, 252, 1)"></circle><circle r="5" cx="1451.46" cy="-61.6" fill="rgba(125, 211, 252, 1)"></circle><circle r="5" cx="1410.99" cy="112.4" fill="rgba(125, 211, 252, 1)"></circle><circle r="5" cx="1419.77" cy="210.78" fill="rgba(125, 211, 252, 1)"></circle><circle r="5" cx="1418.48" cy="348.59" fill="rgba(125, 211, 252, 1)"></circle><circle r="5" cx="1399.74" cy="502.39" fill="rgba(125, 211, 252, 1)"></circle><circle r="5" cx="1419.66" cy="676.97" fill="rgba(125, 211, 252, 1)"></circle><circle r="5" cx="1583.46" cy="-78.13" fill="rgba(125, 211, 252, 1)"></circle><circle r="5" cx="1582.21" cy="85.56" fill="rgba(125, 211, 252, 1)"></circle><circle r="5" cx="1554.61" cy="396.7" fill="rgba(125, 211, 252, 1)"></circle><circle r="5" cx="1541.33" cy="701.58" fill="rgba(125, 211, 252, 1)"></circle><path d="M-86.67 525.8L-86.67 525.8" stroke="hsl(201.29999999999995, 96.3%, 41.8%)" stroke-width="1.5"></path><path d="M-86.67 525.8L-94.99 658.05" stroke="hsl(201.29999999999995, 96.3%, 41.8%)" stroke-width="1.5"></path><path d="M-86.67 525.8L55.15 554.07" stroke="hsl(201.29999999999995, 96.3%, 41.8%)" stroke-width="1.5"></path><path d="M-86.67 525.8L111.86 666.53" stroke="hsl(201.29999999999995, 96.3%, 41.8%)" stroke-width="1.5"></path><path d="M-86.67 525.8L211.76 539.28" stroke="hsl(201.29999999999995, 96.3%, 41.8%)" stroke-width="1.5"></path><path d="M-86.67 525.8L244.06 701.57" stroke="hsl(201.29999999999995, 96.3%, 41.8%)" stroke-width="1.5"></path><path d="M111.86 666.53L111.86 666.53" stroke="hsl(201.29999999999995, 96.3%, 41.8%)" stroke-width="1.5"></path><path d="M111.86 666.53L55.15 554.07" stroke="hsl(201.29999999999995, 96.3%, 41.8%)" stroke-width="1.5"></path><path d="M111.86 666.53L244.06 701.57" stroke="hsl(201.29999999999995, 96.3%, 41.8%)" stroke-width="1.5"></path><path d="M111.86 666.53L211.76 539.28" stroke="hsl(201.29999999999995, 96.3%, 41.8%)" stroke-width="1.5"></path><path d="M111.86 666.53L-94.99 658.05" stroke="hsl(201.29999999999995, 96.3%, 41.8%)" stroke-width="1.5"></path><path d="M387.39 676.9L387.39 676.9" stroke="hsl(201.29999999999995, 96.3%, 41.8%)" stroke-width="1.5"></path><path d="M387.39 676.9L516.96 651.23" stroke="hsl(201.29999999999995, 96.3%, 41.8%)" stroke-width="1.5"></path><path d="M387.39 676.9L404.88 534.82" stroke="hsl(201.29999999999995, 96.3%, 41.8%)" stroke-width="1.5"></path><path d="M387.39 676.9L244.06 701.57" stroke="hsl(201.29999999999995, 96.3%, 41.8%)" stroke-width="1.5"></path><path d="M387.39 676.9L552.96 551.79" stroke="hsl(201.29999999999995, 96.3%, 41.8%)" stroke-width="1.5"></path><path d="M387.39 676.9L211.76 539.28" stroke="hsl(201.29999999999995, 96.3%, 41.8%)" stroke-width="1.5"></path><path d="M1124.64 699.43L1124.64 699.43" stroke="hsl(201.29999999999995, 96.3%, 41.8%)" stroke-width="1.5"></path><path d="M1124.64 699.43L1011.9 676.55" stroke="hsl(201.29999999999995, 96.3%, 41.8%)" stroke-width="1.5"></path><path d="M1124.64 699.43L1298.08 665.43" stroke="hsl(201.29999999999995, 96.3%, 41.8%)" stroke-width="1.5"></path><path d="M1124.64 699.43L1160.52 498.53" stroke="hsl(201.29999999999995, 96.3%, 41.8%)" stroke-width="1.5"></path><path d="M1124.64 699.43L1271.89 549.55" stroke="hsl(201.29999999999995, 96.3%, 41.8%)" stroke-width="1.5"></path><path d="M1124.64 699.43L971.28 513.33" stroke="hsl(201.29999999999995, 96.3%, 41.8%)" stroke-width="1.5"></path><path d="M1240.72 -41.65L1240.72 -41.65" stroke="hsl(201.29999999999995, 96.3%, 41.8%)" stroke-width="1.5"></path><path d="M1240.72 -41.65L1259.18 74.13" stroke="hsl(201.29999999999995, 96.3%, 41.8%)" stroke-width="1.5"></path><path d="M1240.72 -41.65L1435.57 -94.33" stroke="hsl(201.29999999999995, 96.3%, 41.8%)" stroke-width="1.5"></path><path d="M1240.72 -41.65L1274.62 244.7" stroke="hsl(201.29999999999995, 96.3%, 41.8%)" stroke-width="1.5"></path><path d="M1240.72 -41.65L1544.12 -52.42" stroke="hsl(201.29999999999995, 96.3%, 41.8%)" stroke-width="1.5"></path><path d="M1450.73 404.78L1450.73 404.78" stroke="hsl(201.29999999999995, 96.3%, 41.8%)" stroke-width="1.5"></path><path d="M1450.73 404.78L1387.5 514.46" stroke="hsl(201.29999999999995, 96.3%, 41.8%)" stroke-width="1.5"></path><path d="M1450.73 404.78L1588.39 382.04" stroke="hsl(201.29999999999995, 96.3%, 41.8%)" stroke-width="1.5"></path><path d="M1450.73 404.78L1560.46 523.93" stroke="hsl(201.29999999999995, 96.3%, 41.8%)" stroke-width="1.5"></path><path d="M1450.73 404.78L1284.11 350.69" stroke="hsl(201.29999999999995, 96.3%, 41.8%)" stroke-width="1.5"></path><path d="M1450.73 404.78L1407.24 216.87" stroke="hsl(201.29999999999995, 96.3%, 41.8%)" stroke-width="1.5"></path><path d="M1450.73 404.78L1271.89 549.55" stroke="hsl(201.29999999999995, 96.3%, 41.8%)" stroke-width="1.5"></path><path d="M1387.5 514.46L1387.5 514.46" stroke="hsl(201.29999999999995, 96.3%, 41.8%)" stroke-width="1.5"></path><path d="M1387.5 514.46L1271.89 549.55" stroke="hsl(201.29999999999995, 96.3%, 41.8%)" stroke-width="1.5"></path><path d="M1387.5 514.46L1404.88 673.71" stroke="hsl(201.29999999999995, 96.3%, 41.8%)" stroke-width="1.5"></path><path d="M1387.5 514.46L1560.46 523.93" stroke="hsl(201.29999999999995, 96.3%, 41.8%)" stroke-width="1.5"></path><path d="M-94.99 658.05L-94.99 658.05" stroke="hsl(201.29999999999995, 96.3%, 41.8%)" stroke-width="1.5"></path><path d="M-94.99 658.05L55.15 554.07" stroke="hsl(201.29999999999995, 96.3%, 41.8%)" stroke-width="1.5"></path><path d="M-94.99 658.05L211.76 539.28" stroke="hsl(201.29999999999995, 96.3%, 41.8%)" stroke-width="1.5"></path><path d="M55.15 554.07L55.15 554.07" stroke="hsl(201.29999999999995, 96.3%, 41.8%)" stroke-width="1.5"></path><path d="M55.15 554.07L211.76 539.28" stroke="hsl(201.29999999999995, 96.3%, 41.8%)" stroke-width="1.5"></path><path d="M211.76 539.28L211.76 539.28" stroke="hsl(201.29999999999995, 96.3%, 41.8%)" stroke-width="1.5"></path><path d="M211.76 539.28L244.06 701.57" stroke="hsl(201.29999999999995, 96.3%, 41.8%)" stroke-width="1.5"></path><path d="M244.06 701.57L244.06 701.57" stroke="hsl(201.29999999999995, 96.3%, 41.8%)" stroke-width="1.5"></path><path d="M244.06 701.57L404.88 534.82" stroke="hsl(201.29999999999995, 96.3%, 41.8%)" stroke-width="1.5"></path><path d="M244.06 701.57L55.15 554.07" stroke="hsl(201.29999999999995, 96.3%, 41.8%)" stroke-width="1.5"></path><path d="M404.88 534.82L404.88 534.82" stroke="hsl(201.29999999999995, 96.3%, 41.8%)" stroke-width="1.5"></path><path d="M404.88 534.82L552.96 551.79" stroke="hsl(201.29999999999995, 96.3%, 41.8%)" stroke-width="1.5"></path><path d="M552.96 551.79L552.96 551.79" stroke="hsl(201.29999999999995, 96.3%, 41.8%)" stroke-width="1.5"></path><path d="M552.96 551.79L516.96 651.23" stroke="hsl(201.29999999999995, 96.3%, 41.8%)" stroke-width="1.5"></path><path d="M552.96 551.79L681.97 518.32" stroke="hsl(201.29999999999995, 96.3%, 41.8%)" stroke-width="1.5"></path><path d="M516.96 651.23L516.96 651.23" stroke="hsl(201.29999999999995, 96.3%, 41.8%)" stroke-width="1.5"></path><path d="M516.96 651.23L652.52 701.82" stroke="hsl(201.29999999999995, 96.3%, 41.8%)" stroke-width="1.5"></path><path d="M516.96 651.23L404.88 534.82" stroke="hsl(201.29999999999995, 96.3%, 41.8%)" stroke-width="1.5"></path><path d="M516.96 651.23L681.97 518.32" stroke="hsl(201.29999999999995, 96.3%, 41.8%)" stroke-width="1.5"></path><path d="M681.97 518.32L681.97 518.32" stroke="hsl(201.29999999999995, 96.3%, 41.8%)" stroke-width="1.5"></path><path d="M681.97 518.32L832.83 497.87" stroke="hsl(201.29999999999995, 96.3%, 41.8%)" stroke-width="1.5"></path><path d="M681.97 518.32L652.52 701.82" stroke="hsl(201.29999999999995, 96.3%, 41.8%)" stroke-width="1.5"></path><path d="M652.52 701.82L652.52 701.82" stroke="hsl(201.29999999999995, 96.3%, 41.8%)" stroke-width="1.5"></path><path d="M652.52 701.82L792.49 687.54" stroke="hsl(201.29999999999995, 96.3%, 41.8%)" stroke-width="1.5"></path><path d="M795.07 350.12L795.07 350.12" stroke="hsl(201.29999999999995, 96.3%, 41.8%)" stroke-width="1.5"></path><path d="M795.07 350.12L832.83 497.87" stroke="hsl(201.29999999999995, 96.3%, 41.8%)" stroke-width="1.5"></path><path d="M832.83 497.87L832.83 497.87" stroke="hsl(201.29999999999995, 96.3%, 41.8%)" stroke-width="1.5"></path><path d="M832.83 497.87L971.28 513.33" stroke="hsl(201.29999999999995, 96.3%, 41.8%)" stroke-width="1.5"></path><path d="M832.83 497.87L941.96 405.18" stroke="hsl(201.29999999999995, 96.3%, 41.8%)" stroke-width="1.5"></path><path d="M792.49 687.54L792.49 687.54" stroke="hsl(201.29999999999995, 96.3%, 41.8%)" stroke-width="1.5"></path><path d="M966.45 250.49L966.45 250.49" stroke="hsl(201.29999999999995, 96.3%, 41.8%)" stroke-width="1.5"></path><path d="M966.45 250.49L941.96 405.18" stroke="hsl(201.29999999999995, 96.3%, 41.8%)" stroke-width="1.5"></path><path d="M966.45 250.49L1091.84 380.99" stroke="hsl(201.29999999999995, 96.3%, 41.8%)" stroke-width="1.5"></path><path d="M966.45 250.49L1151.9 257.38" stroke="hsl(201.29999999999995, 96.3%, 41.8%)" stroke-width="1.5"></path><path d="M941.96 405.18L941.96 405.18" stroke="hsl(201.29999999999995, 96.3%, 41.8%)" stroke-width="1.5"></path><path d="M941.96 405.18L971.28 513.33" stroke="hsl(201.29999999999995, 96.3%, 41.8%)" stroke-width="1.5"></path><path d="M941.96 405.18L1091.84 380.99" stroke="hsl(201.29999999999995, 96.3%, 41.8%)" stroke-width="1.5"></path><path d="M941.96 405.18L795.07 350.12" stroke="hsl(201.29999999999995, 96.3%, 41.8%)" stroke-width="1.5"></path><path d="M971.28 513.33L971.28 513.33" stroke="hsl(201.29999999999995, 96.3%, 41.8%)" stroke-width="1.5"></path><path d="M1011.9 676.55L1011.9 676.55" stroke="hsl(201.29999999999995, 96.3%, 41.8%)" stroke-width="1.5"></path><path d="M1011.9 676.55L971.28 513.33" stroke="hsl(201.29999999999995, 96.3%, 41.8%)" stroke-width="1.5"></path><path d="M1011.9 676.55L792.49 687.54" stroke="hsl(201.29999999999995, 96.3%, 41.8%)" stroke-width="1.5"></path><path d="M1011.9 676.55L1160.52 498.53" stroke="hsl(201.29999999999995, 96.3%, 41.8%)" stroke-width="1.5"></path><path d="M1011.9 676.55L832.83 497.87" stroke="hsl(201.29999999999995, 96.3%, 41.8%)" stroke-width="1.5"></path><path d="M1151.9 257.38L1151.9 257.38" stroke="hsl(201.29999999999995, 96.3%, 41.8%)" stroke-width="1.5"></path><path d="M1151.9 257.38L1274.62 244.7" stroke="hsl(201.29999999999995, 96.3%, 41.8%)" stroke-width="1.5"></path><path d="M1151.9 257.38L1091.84 380.99" stroke="hsl(201.29999999999995, 96.3%, 41.8%)" stroke-width="1.5"></path><path d="M1091.84 380.99L1091.84 380.99" stroke="hsl(201.29999999999995, 96.3%, 41.8%)" stroke-width="1.5"></path><path d="M1091.84 380.99L1160.52 498.53" stroke="hsl(201.29999999999995, 96.3%, 41.8%)" stroke-width="1.5"></path><path d="M1091.84 380.99L971.28 513.33" stroke="hsl(201.29999999999995, 96.3%, 41.8%)" stroke-width="1.5"></path><path d="M1160.52 498.53L1160.52 498.53" stroke="hsl(201.29999999999995, 96.3%, 41.8%)" stroke-width="1.5"></path><path d="M1160.52 498.53L1271.89 549.55" stroke="hsl(201.29999999999995, 96.3%, 41.8%)" stroke-width="1.5"></path><path d="M1160.52 498.53L971.28 513.33" stroke="hsl(201.29999999999995, 96.3%, 41.8%)" stroke-width="1.5"></path><path d="M1160.52 498.53L1284.11 350.69" stroke="hsl(201.29999999999995, 96.3%, 41.8%)" stroke-width="1.5"></path><path d="M1259.18 74.13L1259.18 74.13" stroke="hsl(201.29999999999995, 96.3%, 41.8%)" stroke-width="1.5"></path><path d="M1259.18 74.13L1274.62 244.7" stroke="hsl(201.29999999999995, 96.3%, 41.8%)" stroke-width="1.5"></path><path d="M1259.18 74.13L1407.24 216.87" stroke="hsl(201.29999999999995, 96.3%, 41.8%)" stroke-width="1.5"></path><path d="M1259.18 74.13L1151.9 257.38" stroke="hsl(201.29999999999995, 96.3%, 41.8%)" stroke-width="1.5"></path><path d="M1259.18 74.13L1435.57 -94.33" stroke="hsl(201.29999999999995, 96.3%, 41.8%)" stroke-width="1.5"></path><path d="M1259.18 74.13L1284.11 350.69" stroke="hsl(201.29999999999995, 96.3%, 41.8%)" stroke-width="1.5"></path><path d="M1274.62 244.7L1274.62 244.7" stroke="hsl(201.29999999999995, 96.3%, 41.8%)" stroke-width="1.5"></path><path d="M1274.62 244.7L1284.11 350.69" stroke="hsl(201.29999999999995, 96.3%, 41.8%)" stroke-width="1.5"></path><path d="M1284.11 350.69L1284.11 350.69" stroke="hsl(201.29999999999995, 96.3%, 41.8%)" stroke-width="1.5"></path><path d="M1284.11 350.69L1151.9 257.38" stroke="hsl(201.29999999999995, 96.3%, 41.8%)" stroke-width="1.5"></path><path d="M1284.11 350.69L1407.24 216.87" stroke="hsl(201.29999999999995, 96.3%, 41.8%)" stroke-width="1.5"></path><path d="M1271.89 549.55L1271.89 549.55" stroke="hsl(201.29999999999995, 96.3%, 41.8%)" stroke-width="1.5"></path><path d="M1271.89 549.55L1298.08 665.43" stroke="hsl(201.29999999999995, 96.3%, 41.8%)" stroke-width="1.5"></path><path d="M1271.89 549.55L1404.88 673.71" stroke="hsl(201.29999999999995, 96.3%, 41.8%)" stroke-width="1.5"></path><path d="M1298.08 665.43L1298.08 665.43" stroke="hsl(201.29999999999995, 96.3%, 41.8%)" stroke-width="1.5"></path><path d="M1298.08 665.43L1404.88 673.71" stroke="hsl(201.29999999999995, 96.3%, 41.8%)" stroke-width="1.5"></path><path d="M1435.57 -94.33L1435.57 -94.33" stroke="hsl(201.29999999999995, 96.3%, 41.8%)" stroke-width="1.5"></path><path d="M1435.57 -94.33L1544.12 -52.42" stroke="hsl(201.29999999999995, 96.3%, 41.8%)" stroke-width="1.5"></path><path d="M1435.57 -94.33L1582.2 64.69" stroke="hsl(201.29999999999995, 96.3%, 41.8%)" stroke-width="1.5"></path><path d="M1435.57 -94.33L1553.11 189.41" stroke="hsl(201.29999999999995, 96.3%, 41.8%)" stroke-width="1.5"></path><path d="M1407.24 216.87L1407.24 216.87" stroke="hsl(201.29999999999995, 96.3%, 41.8%)" stroke-width="1.5"></path><path d="M1407.24 216.87L1274.62 244.7" stroke="hsl(201.29999999999995, 96.3%, 41.8%)" stroke-width="1.5"></path><path d="M1407.24 216.87L1553.11 189.41" stroke="hsl(201.29999999999995, 96.3%, 41.8%)" stroke-width="1.5"></path><path d="M1407.24 216.87L1582.2 64.69" stroke="hsl(201.29999999999995, 96.3%, 41.8%)" stroke-width="1.5"></path><path d="M1404.88 673.71L1404.88 673.71" stroke="hsl(201.29999999999995, 96.3%, 41.8%)" stroke-width="1.5"></path><path d="M1404.88 673.71L1583.36 641.14" stroke="hsl(201.29999999999995, 96.3%, 41.8%)" stroke-width="1.5"></path><path d="M1544.12 -52.42L1544.12 -52.42" stroke="hsl(201.29999999999995, 96.3%, 41.8%)" stroke-width="1.5"></path><path d="M1582.2 64.69L1582.2 64.69" stroke="hsl(201.29999999999995, 96.3%, 41.8%)" stroke-width="1.5"></path><path d="M1582.2 64.69L1544.12 -52.42" stroke="hsl(201.29999999999995, 96.3%, 41.8%)" stroke-width="1.5"></path><path d="M1582.2 64.69L1553.11 189.41" stroke="hsl(201.29999999999995, 96.3%, 41.8%)" stroke-width="1.5"></path><path d="M1553.11 189.41L1553.11 189.41" stroke="hsl(201.29999999999995, 96.3%, 41.8%)" stroke-width="1.5"></path><path d="M1553.11 189.41L1588.39 382.04" stroke="hsl(201.29999999999995, 96.3%, 41.8%)" stroke-width="1.5"></path><path d="M1588.39 382.04L1588.39 382.04" stroke="hsl(201.29999999999995, 96.3%, 41.8%)" stroke-width="1.5"></path><path d="M1588.39 382.04L1560.46 523.93" stroke="hsl(201.29999999999995, 96.3%, 41.8%)" stroke-width="1.5"></path><path d="M1588.39 382.04L1387.5 514.46" stroke="hsl(201.29999999999995, 96.3%, 41.8%)" stroke-width="1.5"></path><path d="M1560.46 523.93L1560.46 523.93" stroke="hsl(201.29999999999995, 96.3%, 41.8%)" stroke-width="1.5"></path><path d="M1560.46 523.93L1583.36 641.14" stroke="hsl(201.29999999999995, 96.3%, 41.8%)" stroke-width="1.5"></path><path d="M1560.46 523.93L1404.88 673.71" stroke="hsl(201.29999999999995, 96.3%, 41.8%)" stroke-width="1.5"></path><path d="M1560.46 523.93L1271.89 549.55" stroke="hsl(201.29999999999995, 96.3%, 41.8%)" stroke-width="1.5"></path><path d="M1583.36 641.14L1583.36 641.14" stroke="hsl(201.29999999999995, 96.3%, 41.8%)" stroke-width="1.5"></path><path d="M1583.36 641.14L1387.5 514.46" stroke="hsl(201.29999999999995, 96.3%, 41.8%)" stroke-width="1.5"></path><path d="M1583.36 641.14L1588.39 382.04" stroke="hsl(201.29999999999995, 96.3%, 41.8%)" stroke-width="1.5"></path><circle r="25" cx="-86.67" cy="525.8" fill="url(&quot;#SvgjsRadialGradient1007&quot;)"></circle><circle r="25" cx="111.86" cy="666.53" fill="url(&quot;#SvgjsRadialGradient1007&quot;)"></circle><circle r="25" cx="387.39" cy="676.9" fill="url(&quot;#SvgjsRadialGradient1007&quot;)"></circle><circle r="25" cx="1124.64" cy="699.43" fill="url(&quot;#SvgjsRadialGradient1007&quot;)"></circle><circle r="25" cx="1240.72" cy="-41.65" fill="url(&quot;#SvgjsRadialGradient1007&quot;)"></circle><circle r="25" cx="1450.73" cy="404.78" fill="url(&quot;#SvgjsRadialGradient1007&quot;)"></circle><circle r="25" cx="1387.5" cy="514.46" fill="url(&quot;#SvgjsRadialGradient1007&quot;)"></circle><circle r="5" cx="-94.99" cy="658.05" fill="#81b4d0"></circle><circle r="5" cx="55.15" cy="554.07" fill="#81b4d0"></circle><circle r="5" cx="211.76" cy="539.28" fill="#81b4d0"></circle><circle r="5" cx="244.06" cy="701.57" fill="#81b4d0"></circle><circle r="5" cx="404.88" cy="534.82" fill="#81b4d0"></circle><circle r="5" cx="552.96" cy="551.79" fill="#81b4d0"></circle><circle r="5" cx="516.96" cy="651.23" fill="#81b4d0"></circle><circle r="5" cx="681.97" cy="518.32" fill="#81b4d0"></circle><circle r="5" cx="652.52" cy="701.82" fill="#81b4d0"></circle><circle r="5" cx="795.07" cy="350.12" fill="#81b4d0"></circle><circle r="5" cx="832.83" cy="497.87" fill="#81b4d0"></circle><circle r="5" cx="792.49" cy="687.54" fill="#81b4d0"></circle><circle r="5" cx="966.45" cy="250.49" fill="#81b4d0"></circle><circle r="5" cx="941.96" cy="405.18" fill="#81b4d0"></circle><circle r="5" cx="971.28" cy="513.33" fill="#81b4d0"></circle><circle r="5" cx="1011.9" cy="676.55" fill="#81b4d0"></circle><circle r="5" cx="1151.9" cy="257.38" fill="#81b4d0"></circle><circle r="5" cx="1091.84" cy="380.99" fill="#81b4d0"></circle><circle r="5" cx="1160.52" cy="498.53" fill="#81b4d0"></circle><circle r="5" cx="1259.18" cy="74.13" fill="#81b4d0"></circle><circle r="5" cx="1274.62" cy="244.7" fill="#81b4d0"></circle><circle r="5" cx="1284.11" cy="350.69" fill="#81b4d0"></circle><circle r="5" cx="1271.89" cy="549.55" fill="#81b4d0"></circle><circle r="5" cx="1298.08" cy="665.43" fill="#81b4d0"></circle><circle r="5" cx="1435.57" cy="-94.33" fill="#81b4d0"></circle><circle r="5" cx="1407.24" cy="216.87" fill="#81b4d0"></circle><circle r="5" cx="1404.88" cy="673.71" fill="#81b4d0"></circle><circle r="5" cx="1544.12" cy="-52.42" fill="#81b4d0"></circle><circle r="5" cx="1582.2" cy="64.69" fill="#81b4d0"></circle><circle r="5" cx="1553.11" cy="189.41" fill="#81b4d0"></circle><circle r="5" cx="1588.39" cy="382.04" fill="#81b4d0"></circle><circle r="5" cx="1560.46" cy="523.93" fill="#81b4d0"></circle><circle r="5" cx="1583.36" cy="641.14" fill="#81b4d0"></circle></g><defs><mask id="SvgjsMask1006"><rect width="1440" height="560" fill="#ffffff"></rect></mask><radialGradient id="SvgjsRadialGradient1007"><stop stop-color="#ffffff" offset="0.1"></stop><stop stop-color="rgba(3, 105, 161, 1)" offset="0.2"></stop><stop stop-color="rgba(3, 105, 161, 0)" offset="1"></stop></radialGradient></defs></svg>